<svg xmlns="http://www.w3.org/2000/svg" xmlns:xlink="http://www.w3.org/1999/xlink" width="1920" zoomAndPan="magnify" viewBox="0 0 1440 809.999993" height="1080" preserveAspectRatio="xMidYMid meet" version="1.0"><defs><clipPath id="04367b783a"><path d="M 423 86.25 L 1017.75 86.25 L 1017.75 723.75 L 423 723.75 Z M 423 86.25 " clip-rule="nonzero"/></clipPath></defs><rect x="-144" width="1728" fill="#ffffff" y="-80.999999" height="971.999992" fill-opacity="1"/><path fill="#ffdd99" d="M 869.0625 405 C 869.0625 407.433594 869.003906 409.863281 868.882812 412.292969 C 868.765625 414.722656 868.585938 417.148438 868.347656 419.570312 C 868.109375 421.992188 867.808594 424.40625 867.453125 426.8125 C 867.097656 429.21875 866.679688 431.613281 866.207031 434 C 865.730469 436.386719 865.199219 438.761719 864.605469 441.121094 C 864.015625 443.480469 863.367188 445.824219 862.660156 448.152344 C 861.953125 450.480469 861.191406 452.789062 860.371094 455.082031 C 859.550781 457.371094 858.675781 459.640625 857.746094 461.886719 C 856.8125 464.136719 855.828125 466.359375 854.785156 468.558594 C 853.746094 470.757812 852.652344 472.929688 851.503906 475.074219 C 850.359375 477.222656 849.160156 479.335938 847.910156 481.421875 C 846.65625 483.511719 845.355469 485.566406 844.003906 487.589844 C 842.652344 489.609375 841.25 491.597656 839.800781 493.554688 C 838.351562 495.507812 836.855469 497.425781 835.3125 499.304688 C 833.769531 501.1875 832.179688 503.027344 830.546875 504.832031 C 828.910156 506.632812 827.234375 508.394531 825.511719 510.113281 C 823.792969 511.835938 822.03125 513.511719 820.226562 515.144531 C 818.425781 516.78125 816.582031 518.367188 814.703125 519.910156 C 812.820312 521.453125 810.902344 522.953125 808.949219 524.402344 C 806.992188 525.851562 805.003906 527.25 802.980469 528.601562 C 800.957031 529.953125 798.902344 531.253906 796.816406 532.503906 C 794.726562 533.757812 792.613281 534.953125 790.464844 536.101562 C 788.320312 537.25 786.148438 538.34375 783.945312 539.382812 C 781.746094 540.421875 779.523438 541.40625 777.273438 542.339844 C 775.027344 543.269531 772.757812 544.144531 770.464844 544.964844 C 768.175781 545.785156 765.867188 546.546875 763.535156 547.253906 C 761.207031 547.960938 758.863281 548.609375 756.503906 549.199219 C 754.144531 549.789062 751.769531 550.324219 749.382812 550.796875 C 746.996094 551.273438 744.597656 551.6875 742.191406 552.046875 C 739.785156 552.402344 737.371094 552.699219 734.949219 552.9375 C 732.527344 553.175781 730.101562 553.355469 727.671875 553.476562 C 725.242188 553.59375 722.808594 553.65625 720.375 553.65625 C 717.941406 553.65625 715.507812 553.59375 713.078125 553.476562 C 710.648438 553.355469 708.222656 553.175781 705.800781 552.9375 C 703.378906 552.699219 700.964844 552.402344 698.558594 552.046875 C 696.152344 551.6875 693.753906 551.273438 691.367188 550.796875 C 688.980469 550.324219 686.605469 549.789062 684.246094 549.199219 C 681.886719 548.609375 679.542969 547.960938 677.214844 547.253906 C 674.882812 546.546875 672.574219 545.785156 670.285156 544.964844 C 667.992188 544.144531 665.722656 543.269531 663.476562 542.339844 C 661.226562 541.40625 659.003906 540.421875 656.804688 539.382812 C 654.601562 538.34375 652.429688 537.25 650.285156 536.101562 C 648.136719 534.953125 646.023438 533.757812 643.933594 532.503906 C 641.847656 531.253906 639.792969 529.953125 637.769531 528.601562 C 635.746094 527.25 633.757812 525.851562 631.800781 524.402344 C 629.847656 522.953125 627.929688 521.453125 626.046875 519.910156 C 624.167969 518.367188 622.324219 516.78125 620.523438 515.144531 C 618.71875 513.511719 616.957031 511.835938 615.238281 510.113281 C 613.515625 508.394531 611.839844 506.632812 610.203125 504.832031 C 608.570312 503.027344 606.980469 501.1875 605.4375 499.304688 C 603.894531 497.425781 602.398438 495.507812 600.949219 493.554688 C 599.5 491.597656 598.097656 489.609375 596.746094 487.589844 C 595.394531 485.566406 594.09375 483.511719 592.839844 481.421875 C 591.589844 479.335938 590.390625 477.222656 589.246094 475.074219 C 588.097656 472.929688 587.003906 470.757812 585.964844 468.558594 C 584.921875 466.359375 583.9375 464.136719 583.003906 461.886719 C 582.074219 459.640625 581.199219 457.371094 580.378906 455.082031 C 579.558594 452.789062 578.796875 450.480469 578.089844 448.152344 C 577.382812 445.824219 576.734375 443.480469 576.144531 441.121094 C 575.550781 438.761719 575.019531 436.386719 574.542969 434 C 574.070312 431.613281 573.652344 429.21875 573.296875 426.8125 C 572.941406 424.40625 572.640625 421.992188 572.402344 419.570312 C 572.164062 417.148438 571.984375 414.722656 571.867188 412.292969 C 571.746094 409.863281 571.6875 407.433594 571.6875 405 C 571.6875 402.566406 571.746094 400.136719 571.867188 397.707031 C 571.984375 395.277344 572.164062 392.851562 572.402344 390.429688 C 572.640625 388.007812 572.941406 385.59375 573.296875 383.1875 C 573.652344 380.78125 574.070312 378.386719 574.542969 376 C 575.019531 373.613281 575.550781 371.238281 576.144531 368.878906 C 576.734375 366.519531 577.382812 364.175781 578.089844 361.847656 C 578.796875 359.519531 579.558594 357.210938 580.378906 354.917969 C 581.199219 352.628906 582.074219 350.359375 583.003906 348.113281 C 583.9375 345.863281 584.921875 343.640625 585.964844 341.441406 C 587.003906 339.242188 588.097656 337.070312 589.246094 334.925781 C 590.390625 332.777344 591.589844 330.664062 592.839844 328.574219 C 594.09375 326.488281 595.394531 324.433594 596.746094 322.410156 C 598.097656 320.390625 599.5 318.402344 600.949219 316.445312 C 602.398438 314.492188 603.894531 312.574219 605.4375 310.695312 C 606.980469 308.8125 608.570312 306.972656 610.203125 305.167969 C 611.839844 303.367188 613.515625 301.605469 615.238281 299.886719 C 616.957031 298.164062 618.71875 296.488281 620.523438 294.855469 C 622.324219 293.21875 624.167969 291.632812 626.046875 290.089844 C 627.929688 288.546875 629.847656 287.046875 631.800781 285.597656 C 633.757812 284.148438 635.746094 282.75 637.769531 281.398438 C 639.792969 280.046875 641.847656 278.746094 643.933594 277.496094 C 646.023438 276.242188 648.136719 275.046875 650.285156 273.898438 C 652.429688 272.75 654.601562 271.65625 656.804688 270.617188 C 659.003906 269.578125 661.226562 268.59375 663.476562 267.660156 C 665.722656 266.730469 667.992188 265.855469 670.285156 265.035156 C 672.574219 264.214844 674.882812 263.453125 677.214844 262.746094 C 679.542969 262.039062 681.886719 261.390625 684.246094 260.800781 C 686.605469 260.210938 688.980469 259.675781 691.367188 259.203125 C 693.753906 258.726562 696.152344 258.3125 698.558594 257.953125 C 700.964844 257.597656 703.378906 257.300781 705.800781 257.0625 C 708.222656 256.824219 710.648438 256.644531 713.078125 256.523438 C 715.507812 256.40625 717.941406 256.34375 720.375 256.34375 C 722.808594 256.34375 725.242188 256.40625 727.671875 256.523438 C 730.101562 256.644531 732.527344 256.824219 734.949219 257.0625 C 737.371094 257.300781 739.785156 257.597656 742.191406 257.953125 C 744.597656 258.3125 746.996094 258.726562 749.382812 259.203125 C 751.769531 259.675781 754.144531 260.210938 756.503906 260.800781 C 758.863281 261.390625 761.207031 262.039062 763.535156 262.746094 C 765.867188 263.453125 768.175781 264.214844 770.464844 265.035156 C 772.757812 265.855469 775.027344 266.730469 777.273438 267.660156 C 779.523438 268.59375 781.746094 269.578125 783.945312 270.617188 C 786.148438 271.65625 788.320312 272.75 790.464844 273.898438 C 792.613281 275.046875 794.726562 276.242188 796.816406 277.496094 C 798.902344 278.746094 800.957031 280.046875 802.980469 281.398438 C 805.003906 282.75 806.992188 284.148438 808.949219 285.597656 C 810.902344 287.046875 812.820312 288.546875 814.703125 290.089844 C 816.582031 291.632812 818.425781 293.21875 820.226562 294.855469 C 822.03125 296.488281 823.792969 298.164062 825.511719 299.886719 C 827.234375 301.605469 828.910156 303.367188 830.546875 305.167969 C 832.179688 306.972656 833.769531 308.8125 835.3125 310.695312 C 836.855469 312.574219 838.351562 314.492188 839.800781 316.445312 C 841.25 318.402344 842.652344 320.390625 844.003906 322.410156 C 845.355469 324.433594 846.65625 326.488281 847.910156 328.574219 C 849.160156 330.664062 850.359375 332.777344 851.503906 334.925781 C 852.652344 337.070312 853.746094 339.242188 854.785156 341.441406 C 855.828125 343.640625 856.8125 345.863281 857.746094 348.113281 C 858.675781 350.359375 859.550781 352.628906 860.371094 354.917969 C 861.191406 357.210938 861.953125 359.519531 862.660156 361.847656 C 863.367188 364.175781 864.015625 366.519531 864.605469 368.878906 C 865.199219 371.238281 865.730469 373.613281 866.207031 376 C 866.679688 378.386719 867.097656 380.78125 867.453125 383.1875 C 867.808594 385.59375 868.109375 388.007812 868.347656 390.429688 C 868.585938 392.851562 868.765625 395.277344 868.882812 397.707031 C 869.003906 400.136719 869.0625 402.566406 869.0625 405 Z M 869.0625 405 " fill-opacity="1" fill-rule="nonzero"/><path fill="#ffb41f" d="M 826.582031 405 C 826.582031 406.738281 826.539062 408.472656 826.453125 410.210938 C 826.367188 411.945312 826.238281 413.679688 826.070312 415.40625 C 825.898438 417.136719 825.6875 418.859375 825.429688 420.582031 C 825.175781 422.300781 824.878906 424.011719 824.539062 425.714844 C 824.199219 427.417969 823.820312 429.113281 823.398438 430.800781 C 822.976562 432.484375 822.511719 434.160156 822.007812 435.824219 C 821.503906 437.484375 820.957031 439.136719 820.371094 440.773438 C 819.785156 442.40625 819.160156 444.027344 818.496094 445.632812 C 817.832031 447.238281 817.125 448.828125 816.382812 450.398438 C 815.640625 451.96875 814.859375 453.519531 814.039062 455.054688 C 813.21875 456.585938 812.363281 458.097656 811.46875 459.589844 C 810.578125 461.078125 809.648438 462.546875 808.679688 463.992188 C 807.714844 465.4375 806.714844 466.855469 805.679688 468.253906 C 804.644531 469.648438 803.574219 471.019531 802.472656 472.359375 C 801.371094 473.703125 800.234375 475.019531 799.066406 476.308594 C 797.902344 477.59375 796.703125 478.851562 795.472656 480.082031 C 794.246094 481.3125 792.984375 482.507812 791.699219 483.675781 C 790.410156 484.84375 789.09375 485.976562 787.75 487.078125 C 786.40625 488.183594 785.039062 489.25 783.640625 490.285156 C 782.246094 491.320312 780.824219 492.320312 779.378906 493.285156 C 777.933594 494.253906 776.464844 495.183594 774.976562 496.074219 C 773.484375 496.96875 771.972656 497.824219 770.441406 498.644531 C 768.90625 499.464844 767.355469 500.246094 765.785156 500.988281 C 764.210938 501.730469 762.625 502.433594 761.019531 503.097656 C 759.414062 503.765625 757.789062 504.390625 756.15625 504.976562 C 754.519531 505.558594 752.867188 506.105469 751.203125 506.609375 C 749.542969 507.113281 747.867188 507.578125 746.179688 508 C 744.496094 508.421875 742.800781 508.800781 741.09375 509.140625 C 739.390625 509.480469 737.679688 509.777344 735.957031 510.03125 C 734.238281 510.289062 732.515625 510.5 730.785156 510.671875 C 729.054688 510.839844 727.320312 510.96875 725.585938 511.054688 C 723.851562 511.140625 722.113281 511.183594 720.375 511.183594 C 718.636719 511.183594 716.898438 511.140625 715.164062 511.054688 C 713.425781 510.96875 711.695312 510.839844 709.964844 510.671875 C 708.234375 510.5 706.511719 510.289062 704.792969 510.03125 C 703.070312 509.777344 701.359375 509.480469 699.65625 509.140625 C 697.949219 508.800781 696.253906 508.421875 694.570312 508 C 692.882812 507.578125 691.207031 507.113281 689.546875 506.609375 C 687.882812 506.105469 686.230469 505.558594 684.59375 504.976562 C 682.957031 504.390625 681.335938 503.765625 679.730469 503.097656 C 678.125 502.433594 676.539062 501.730469 674.964844 500.988281 C 673.394531 500.246094 671.84375 499.464844 670.308594 498.644531 C 668.777344 497.824219 667.265625 496.96875 665.773438 496.074219 C 664.285156 495.183594 662.816406 494.253906 661.371094 493.285156 C 659.925781 492.320312 658.503906 491.320312 657.109375 490.285156 C 655.710938 489.25 654.34375 488.183594 653 487.078125 C 651.65625 485.976562 650.339844 484.84375 649.050781 483.675781 C 647.765625 482.507812 646.503906 481.3125 645.277344 480.082031 C 644.046875 478.851562 642.847656 477.59375 641.683594 476.308594 C 640.515625 475.019531 639.378906 473.703125 638.277344 472.359375 C 637.175781 471.019531 636.105469 469.648438 635.070312 468.253906 C 634.035156 466.855469 633.035156 465.4375 632.070312 463.992188 C 631.101562 462.546875 630.171875 461.078125 629.28125 459.589844 C 628.386719 458.097656 627.53125 456.585938 626.710938 455.054688 C 625.890625 453.519531 625.109375 451.96875 624.367188 450.398438 C 623.625 448.828125 622.917969 447.238281 622.253906 445.632812 C 621.589844 444.027344 620.964844 442.40625 620.378906 440.773438 C 619.792969 439.136719 619.246094 437.484375 618.742188 435.824219 C 618.238281 434.160156 617.773438 432.484375 617.351562 430.800781 C 616.929688 429.113281 616.550781 427.417969 616.210938 425.714844 C 615.871094 424.011719 615.574219 422.300781 615.320312 420.578125 C 615.0625 418.859375 614.851562 417.136719 614.679688 415.40625 C 614.511719 413.679688 614.382812 411.945312 614.296875 410.210938 C 614.210938 408.472656 614.167969 406.738281 614.167969 405 C 614.167969 403.261719 614.210938 401.527344 614.296875 399.789062 C 614.382812 398.054688 614.511719 396.320312 614.679688 394.59375 C 614.851562 392.863281 615.0625 391.140625 615.320312 389.417969 C 615.574219 387.699219 615.871094 385.988281 616.210938 384.285156 C 616.550781 382.582031 616.929688 380.886719 617.351562 379.199219 C 617.773438 377.515625 618.238281 375.839844 618.742188 374.175781 C 619.246094 372.515625 619.792969 370.863281 620.378906 369.226562 C 620.964844 367.59375 621.589844 365.972656 622.253906 364.367188 C 622.917969 362.761719 623.625 361.171875 624.367188 359.601562 C 625.109375 358.03125 625.890625 356.480469 626.710938 354.945312 C 627.53125 353.414062 628.386719 351.902344 629.28125 350.410156 C 630.171875 348.921875 631.101562 347.453125 632.070312 346.007812 C 633.035156 344.5625 634.035156 343.144531 635.070312 341.746094 C 636.105469 340.351562 637.175781 338.980469 638.277344 337.640625 C 639.378906 336.296875 640.515625 334.980469 641.683594 333.691406 C 642.847656 332.40625 644.046875 331.148438 645.277344 329.917969 C 646.503906 328.6875 647.765625 327.492188 649.050781 326.324219 C 650.339844 325.15625 651.65625 324.023438 653 322.921875 C 654.34375 321.816406 655.710938 320.75 657.109375 319.714844 C 658.503906 318.679688 659.925781 317.679688 661.371094 316.714844 C 662.816406 315.746094 664.285156 314.816406 665.773438 313.925781 C 667.265625 313.03125 668.777344 312.175781 670.308594 311.355469 C 671.84375 310.535156 673.394531 309.753906 674.964844 309.011719 C 676.539062 308.269531 678.125 307.566406 679.730469 306.902344 C 681.335938 306.234375 682.957031 305.609375 684.59375 305.023438 C 686.230469 304.441406 687.882812 303.894531 689.546875 303.390625 C 691.207031 302.886719 692.882812 302.421875 694.570312 302 C 696.253906 301.578125 697.949219 301.199219 699.65625 300.859375 C 701.359375 300.519531 703.070312 300.222656 704.792969 299.96875 C 706.511719 299.710938 708.234375 299.5 709.964844 299.328125 C 711.695312 299.160156 713.425781 299.03125 715.164062 298.945312 C 716.898438 298.859375 718.636719 298.816406 720.375 298.816406 C 722.113281 298.816406 723.851562 298.859375 725.585938 298.945312 C 727.320312 299.03125 729.054688 299.160156 730.785156 299.328125 C 732.515625 299.5 734.238281 299.710938 735.957031 299.96875 C 737.679688 300.222656 739.390625 300.519531 741.09375 300.859375 C 742.800781 301.199219 744.496094 301.578125 746.179688 302 C 747.867188 302.421875 749.542969 302.886719 751.203125 303.390625 C 752.867188 303.894531 754.519531 304.441406 756.15625 305.023438 C 757.789062 305.609375 759.414062 306.234375 761.019531 306.902344 C 762.625 307.566406 764.210938 308.269531 765.785156 309.011719 C 767.355469 309.753906 768.90625 310.535156 770.441406 311.355469 C 771.972656 312.175781 773.484375 313.03125 774.976562 313.925781 C 776.464844 314.816406 777.933594 315.746094 779.378906 316.714844 C 780.824219 317.679688 782.246094 318.679688 783.640625 319.714844 C 785.039062 320.75 786.40625 321.816406 787.75 322.921875 C 789.09375 324.023438 790.410156 325.15625 791.699219 326.324219 C 792.984375 327.492188 794.246094 328.6875 795.472656 329.917969 C 796.703125 331.148438 797.902344 332.40625 799.066406 333.691406 C 800.234375 334.980469 801.371094 336.296875 802.472656 337.640625 C 803.574219 338.980469 804.644531 340.351562 805.679688 341.746094 C 806.714844 343.144531 807.714844 344.5625 808.679688 346.007812 C 809.648438 347.453125 810.578125 348.921875 811.46875 350.410156 C 812.363281 351.902344 813.21875 353.414062 814.039062 354.945312 C 814.859375 356.480469 815.640625 358.03125 816.382812 359.601562 C 817.125 361.171875 817.832031 362.761719 818.496094 364.367188 C 819.160156 365.972656 819.785156 367.59375 820.371094 369.226562 C 820.957031 370.863281 821.503906 372.515625 822.007812 374.175781 C 822.511719 375.839844 822.976562 377.515625 823.398438 379.199219 C 823.820312 380.886719 824.199219 382.582031 824.539062 384.285156 C 824.878906 385.988281 825.175781 387.699219 825.429688 389.417969 C 825.6875 391.140625 825.898438 392.863281 826.070312 394.59375 C 826.238281 396.320312 826.367188 398.054688 826.453125 399.789062 C 826.539062 401.527344 826.582031 403.261719 826.582031 405 Z M 826.582031 405 " fill-opacity="1" fill-rule="nonzero"/><path fill="#f5a300" d="M 720.375 468.710938 L 667.273438 436.855469 L 667.273438 373.144531 L 720.375 405 Z M 720.375 468.710938 " fill-opacity="1" fill-rule="nonzero"/><path fill="#ffc857" d="M 720.375 468.710938 L 773.476562 436.855469 L 773.476562 373.144531 L 720.375 405 Z M 720.375 468.710938 " fill-opacity="1" fill-rule="nonzero"/><path fill="#ffdd99" d="M 667.273438 373.144531 L 720.375 405 L 773.476562 373.144531 L 720.375 341.289062 Z M 667.273438 373.144531 " fill-opacity="1" fill-rule="nonzero"/><path fill="#ffdd99" d="M 720.375 596.128906 L 667.273438 627.980469 L 720.375 659.835938 L 773.476562 627.980469 L 720.375 596.128906 " fill-opacity="1" fill-rule="nonzero"/><path fill="#ffb41f" d="M 667.273438 681.074219 L 720.375 712.925781 L 720.375 659.835938 L 667.273438 627.980469 Z M 667.273438 681.074219 " fill-opacity="1" fill-rule="nonzero"/><path fill="#ffc857" d="M 773.476562 681.074219 L 720.375 712.925781 L 720.375 659.835938 L 773.476562 627.980469 Z M 773.476562 681.074219 " fill-opacity="1" fill-rule="nonzero"/><path fill="#ffdd99" d="M 954.027344 468.710938 L 900.925781 500.5625 L 954.027344 532.417969 L 1007.128906 500.5625 L 954.027344 468.710938 " fill-opacity="1" fill-rule="nonzero"/><path fill="#ffb41f" d="M 900.925781 553.65625 L 954.027344 585.507812 L 954.027344 532.417969 L 900.925781 500.5625 Z M 900.925781 553.65625 " fill-opacity="1" fill-rule="nonzero"/><path fill="#ffc857" d="M 1007.128906 553.65625 L 954.027344 585.507812 L 954.027344 532.417969 L 1007.128906 500.5625 Z M 1007.128906 553.65625 " fill-opacity="1" fill-rule="nonzero"/><path fill="#ffdd99" d="M 954.027344 224.492188 L 900.925781 256.34375 L 954.027344 288.199219 L 1007.128906 256.34375 L 954.027344 224.492188 " fill-opacity="1" fill-rule="nonzero"/><path fill="#ffb41f" d="M 900.925781 309.4375 L 954.027344 341.289062 L 954.027344 288.199219 L 900.925781 256.34375 Z M 900.925781 309.4375 " fill-opacity="1" fill-rule="nonzero"/><path fill="#ffc857" d="M 1007.128906 309.4375 L 954.027344 341.289062 L 954.027344 288.199219 L 1007.128906 256.34375 Z M 1007.128906 309.4375 " fill-opacity="1" fill-rule="nonzero"/><path fill="#ffdd99" d="M 720.375 97.074219 L 667.273438 128.925781 L 720.375 160.78125 L 773.476562 128.925781 L 720.375 97.074219 " fill-opacity="1" fill-rule="nonzero"/><path fill="#ffb41f" d="M 667.273438 182.019531 L 720.375 213.871094 L 720.375 160.78125 L 667.273438 128.925781 Z M 667.273438 182.019531 " fill-opacity="1" fill-rule="nonzero"/><path fill="#ffc857" d="M 773.476562 182.019531 L 720.375 213.871094 L 720.375 160.78125 L 773.476562 128.925781 Z M 773.476562 182.019531 " fill-opacity="1" fill-rule="nonzero"/><path fill="#ffdd99" d="M 486.722656 224.492188 L 433.621094 256.34375 L 486.722656 288.199219 L 539.824219 256.34375 L 486.722656 224.492188 " fill-opacity="1" fill-rule="nonzero"/><path fill="#ffb41f" d="M 433.621094 309.4375 L 486.722656 341.289062 L 486.722656 288.199219 L 433.621094 256.34375 Z M 433.621094 309.4375 " fill-opacity="1" fill-rule="nonzero"/><path fill="#ffc857" d="M 539.824219 309.4375 L 486.722656 341.289062 L 486.722656 288.199219 L 539.824219 256.34375 Z M 539.824219 309.4375 " fill-opacity="1" fill-rule="nonzero"/><path fill="#ffdd99" d="M 486.722656 468.710938 L 433.621094 500.5625 L 486.722656 532.417969 L 539.824219 500.5625 L 486.722656 468.710938 " fill-opacity="1" fill-rule="nonzero"/><path fill="#ffb41f" d="M 433.621094 553.65625 L 486.722656 585.507812 L 486.722656 532.417969 L 433.621094 500.5625 Z M 433.621094 553.65625 " fill-opacity="1" fill-rule="nonzero"/><path fill="#ffc857" d="M 539.824219 553.65625 L 486.722656 585.507812 L 486.722656 532.417969 L 539.824219 500.5625 Z M 539.824219 553.65625 " fill-opacity="1" fill-rule="nonzero"/><path fill="#464a51" d="M 720.375 288.199219 C 655.960938 288.199219 603.550781 340.601562 603.550781 405 C 603.550781 469.398438 655.960938 521.800781 720.375 521.800781 C 784.789062 521.800781 837.199219 469.398438 837.199219 405 C 837.199219 340.601562 784.789062 288.199219 720.375 288.199219 Z M 720.375 500.5625 C 667.675781 500.5625 624.789062 457.699219 624.789062 405 C 624.789062 352.300781 667.675781 309.4375 720.375 309.4375 C 773.074219 309.4375 815.960938 352.300781 815.960938 405 C 815.960938 457.699219 773.074219 500.5625 720.375 500.5625 Z M 720.375 500.5625 " fill-opacity="1" fill-rule="nonzero"/><path fill="#464a51" d="M 778.945312 364.046875 L 725.84375 332.191406 C 722.476562 330.183594 718.28125 330.183594 714.917969 332.191406 L 661.8125 364.046875 C 658.605469 365.957031 656.652344 369.40625 656.652344 373.144531 L 656.652344 436.855469 C 656.652344 440.59375 658.605469 444.042969 661.800781 445.953125 L 714.90625 477.808594 C 716.59375 478.816406 718.484375 479.328125 720.375 479.328125 C 722.265625 479.328125 724.15625 478.816406 725.84375 477.808594 L 778.945312 445.953125 C 782.144531 444.042969 784.097656 440.59375 784.097656 436.855469 L 784.097656 373.144531 C 784.097656 369.40625 782.144531 365.957031 778.945312 364.046875 Z M 720.375 353.671875 L 752.832031 373.144531 L 720.375 392.621094 L 687.917969 373.144531 Z M 677.894531 391.898438 L 709.753906 411.011719 L 709.753906 449.945312 L 677.894531 430.835938 Z M 730.996094 449.957031 L 730.996094 411.019531 L 762.855469 391.90625 L 762.855469 430.84375 Z M 730.996094 449.957031 " fill-opacity="1" fill-rule="nonzero"/><g clip-path="url(#04367b783a)"><path fill="#464a51" d="M 1012.597656 318.535156 C 1015.796875 316.625 1017.75 313.175781 1017.75 309.4375 L 1017.75 256.34375 C 1017.75 252.609375 1015.796875 249.15625 1012.597656 247.246094 L 959.496094 215.390625 C 956.128906 213.382812 951.933594 213.382812 948.566406 215.390625 L 900.859375 244.007812 L 784.097656 175.914062 L 784.097656 128.925781 C 784.097656 125.1875 782.144531 121.738281 778.945312 119.828125 L 725.84375 87.972656 C 722.476562 85.964844 718.28125 85.964844 714.917969 87.972656 L 661.8125 119.828125 C 658.605469 121.738281 656.652344 125.1875 656.652344 128.925781 L 656.652344 175.914062 L 539.898438 244.007812 L 492.191406 215.390625 C 488.824219 213.382812 484.632812 213.382812 481.265625 215.390625 L 428.160156 247.246094 C 424.953125 249.15625 423 252.609375 423 256.34375 L 423 309.4375 C 423 313.175781 424.953125 316.625 428.152344 318.535156 L 476.101562 347.300781 L 476.101562 462.699219 L 428.152344 491.464844 C 424.953125 493.375 423 496.824219 423 500.5625 L 423 553.65625 C 423 557.390625 424.953125 560.84375 428.152344 562.753906 L 481.253906 594.609375 C 482.941406 595.617188 484.832031 596.128906 486.722656 596.128906 C 488.613281 596.128906 490.503906 595.617188 492.191406 594.609375 L 539.898438 565.992188 L 656.652344 634.085938 L 656.652344 681.074219 C 656.652344 684.8125 658.605469 688.261719 661.800781 690.171875 L 714.90625 722.027344 C 716.59375 723.035156 718.484375 723.546875 720.375 723.546875 C 722.265625 723.546875 724.15625 723.035156 725.84375 722.027344 L 778.945312 690.171875 C 782.144531 688.261719 784.097656 684.8125 784.097656 681.074219 L 784.097656 634.085938 L 900.851562 565.992188 L 948.558594 594.609375 C 950.246094 595.617188 952.136719 596.128906 954.027344 596.128906 C 955.917969 596.128906 957.808594 595.617188 959.496094 594.609375 L 1012.597656 562.753906 C 1015.796875 560.84375 1017.75 557.390625 1017.75 553.65625 L 1017.75 500.5625 C 1017.75 496.824219 1015.796875 493.375 1012.597656 491.464844 L 964.648438 462.699219 L 964.648438 347.300781 Z M 667.199219 194.355469 L 709.753906 219.882812 L 709.753906 246.257812 C 655.910156 249.835938 609.402344 280.183594 583.339844 324.175781 L 550.445312 303.554688 L 550.445312 262.449219 Z M 890.304688 262.449219 L 890.304688 303.542969 L 857.347656 324.078125 C 831.285156 280.140625 784.800781 249.835938 730.996094 246.257812 L 730.996094 219.882812 L 773.550781 194.355469 Z M 943.40625 462.699219 L 901.050781 488.109375 L 867.171875 466.871094 C 875.222656 447.832031 879.683594 426.925781 879.683594 405 C 879.683594 383.019531 875.210938 362.082031 867.117188 343.011719 L 901.03125 321.878906 L 943.40625 347.300781 Z M 720.375 647.457031 L 687.917969 627.980469 L 720.375 608.507812 L 752.832031 627.980469 Z M 720.375 543.035156 C 644.246094 543.035156 582.308594 481.109375 582.308594 405 C 582.308594 328.890625 644.246094 266.964844 720.375 266.964844 C 796.503906 266.964844 858.441406 328.890625 858.441406 405 C 858.441406 481.109375 796.503906 543.035156 720.375 543.035156 Z M 539.699219 488.109375 L 497.34375 462.699219 L 497.34375 347.300781 L 539.699219 321.890625 L 573.578125 343.128906 C 565.527344 362.167969 561.066406 383.074219 561.066406 405 C 561.066406 426.925781 565.527344 447.832031 573.578125 466.871094 Z M 497.34375 294.210938 L 529.207031 275.097656 L 529.207031 303.414062 L 497.34375 322.527344 Z M 911.542969 275.097656 L 943.40625 294.210938 L 943.40625 322.527344 L 911.542969 303.414062 Z M 762.855469 176.007812 L 730.996094 195.121094 L 730.996094 166.792969 L 762.855469 147.679688 Z M 709.753906 166.792969 L 709.753906 195.109375 L 677.894531 175.996094 L 677.894531 147.679688 Z M 519.179688 500.5625 L 486.722656 520.039062 L 454.265625 500.5625 L 486.722656 481.089844 Z M 550.445312 506.445312 L 583.339844 485.824219 C 609.390625 529.804688 655.910156 560.164062 709.753906 563.742188 L 709.753906 590.117188 L 667.199219 615.644531 L 550.445312 547.550781 Z M 773.550781 615.644531 L 730.996094 590.117188 L 730.996094 563.742188 C 784.839844 560.164062 831.347656 529.816406 857.410156 485.824219 L 890.304688 506.445312 L 890.304688 547.550781 Z M 954.027344 520.039062 L 921.570312 500.5625 L 954.027344 481.089844 L 986.484375 500.5625 Z M 964.648438 322.539062 L 964.648438 294.21875 L 996.507812 275.109375 L 996.507812 303.425781 Z M 954.027344 236.871094 L 986.484375 256.34375 L 954.027344 275.820312 L 921.570312 256.34375 Z M 720.375 109.453125 L 752.832031 128.925781 L 720.375 148.402344 L 687.917969 128.925781 Z M 486.722656 236.871094 L 519.179688 256.34375 L 486.722656 275.820312 L 454.265625 256.34375 Z M 444.242188 275.097656 L 476.101562 294.210938 L 476.101562 322.527344 L 444.242188 303.414062 Z M 444.242188 519.316406 L 476.101562 538.429688 L 476.101562 566.746094 L 444.242188 547.632812 Z M 497.34375 566.757812 L 497.34375 538.4375 L 529.207031 519.324219 L 529.207031 547.644531 Z M 677.894531 646.734375 L 709.753906 665.847656 L 709.753906 694.164062 L 677.894531 675.050781 Z M 730.996094 694.175781 L 730.996094 665.855469 L 762.855469 646.746094 L 762.855469 675.0625 Z M 911.542969 519.316406 L 943.40625 538.429688 L 943.40625 566.746094 L 911.542969 547.632812 Z M 964.648438 566.757812 L 964.648438 538.4375 L 996.507812 519.324219 L 996.507812 547.644531 Z M 964.648438 566.757812 " fill-opacity="1" fill-rule="nonzero"/></g></svg>