<svg xmlns="http://www.w3.org/2000/svg" xmlns:xlink="http://www.w3.org/1999/xlink" width="1920" zoomAndPan="magnify" viewBox="0 0 1440 809.999993" height="1080" preserveAspectRatio="xMidYMid meet" version="1.0"><defs><clipPath id="0f0df383b6"><path d="M 516.75 445 L 720 445 L 720 735 L 516.75 735 Z M 516.75 445 " clip-rule="nonzero"/></clipPath><clipPath id="4390fd2e14"><path d="M 719 445 L 923.25 445 L 923.25 735 L 719 735 Z M 719 445 " clip-rule="nonzero"/></clipPath></defs><rect x="-144" width="1728" fill="#ffffff" y="-80.999999" height="971.999992" fill-opacity="1"/><path fill="#868dac" d="M 719.980469 75.339844 L 719.980469 314.84375 L 519.578125 408.847656 L 518.90625 408.457031 L 539.65625 374.066406 Z M 719.980469 75.339844 " fill-opacity="1" fill-rule="nonzero"/><g clip-path="url(#0f0df383b6)"><path fill="#868dac" d="M 719.980469 566.648438 L 719.980469 734.640625 L 516.75 445.117188 Z M 719.980469 566.648438 " fill-opacity="1" fill-rule="nonzero"/></g><path fill="#5f658b" d="M 719.980469 314.84375 L 719.980469 528.699219 L 543.933594 423.417969 L 519.578125 408.847656 Z M 719.980469 314.84375 " fill-opacity="1" fill-rule="nonzero"/><path fill="#5f658b" d="M 921.089844 408.457031 L 920.421875 408.847656 L 719.980469 314.84375 L 719.980469 75.339844 L 900.339844 374.066406 Z M 921.089844 408.457031 " fill-opacity="1" fill-rule="nonzero"/><path fill="#434871" d="M 920.421875 408.847656 L 896.023438 423.417969 L 719.980469 528.699219 L 719.980469 314.84375 Z M 920.421875 408.847656 " fill-opacity="1" fill-rule="nonzero"/><g clip-path="url(#4390fd2e14)"><path fill="#5f658b" d="M 923.246094 445.117188 L 720.019531 734.679688 L 719.980469 734.640625 L 719.980469 566.648438 Z M 923.246094 445.117188 " fill-opacity="1" fill-rule="nonzero"/></g></svg>